<svg width="800" height="800" viewBox="0 0 800 800" fill="none" xmlns="http://www.w3.org/2000/svg">
<path d="M733.329 397.95C732.55 334.427 713.632 272.45 678.806 219.317C643.98 166.185 594.699 124.109 536.764 98.0473C478.825 71.9852 414.647 63.0215 351.787 72.2114C288.928 81.4017 230.002 108.363 181.952 149.92C133.901 191.478 98.7262 245.9 80.5693 306.779C62.4129 367.658 62.0304 432.456 79.4676 493.545C96.9049 554.635 131.435 609.466 178.992 651.588C226.549 693.71 285.152 721.365 347.899 731.295V495.037H264.563V397.95H347.899V324.198C345.97 307.05 347.828 289.686 353.345 273.334C358.862 256.982 367.9 242.04 379.821 229.562C391.742 217.084 406.255 207.375 422.339 201.12C438.423 194.865 455.686 192.216 472.903 193.361C497.896 193.703 522.83 195.932 547.489 200.028V283.364H505.821C498.638 282.458 491.337 283.178 484.471 285.471C477.599 287.764 471.333 291.571 466.132 296.612C460.932 301.652 456.932 307.796 454.428 314.589C451.919 321.385 450.974 328.656 451.653 335.865V398.784H544.156L529.155 495.87H452.069V729.212C530.818 716.757 602.495 676.489 654.097 615.712C705.699 554.935 733.808 477.678 733.329 397.95Z" fill="black"/>
</svg>
