<svg width="800" height="800" viewBox="0 0 800 800" fill="none" xmlns="http://www.w3.org/2000/svg">
<path fill-rule="evenodd" clip-rule="evenodd" d="M502.364 173.096C526.667 144.929 543.049 105.698 538.566 66.665C503.544 67.9984 461.174 89.0369 436.063 117.17C413.513 142.137 393.828 182.03 399.12 220.297C438.186 223.196 478.062 201.295 502.364 173.096ZM589.969 420.837C590.946 521.737 682.326 555.301 683.337 555.735C682.596 558.101 668.742 603.56 635.204 650.56C606.182 691.16 576.082 731.596 528.656 732.462C482.073 733.296 467.073 705.997 413.782 705.997C360.525 705.997 343.874 731.592 299.785 733.292C254.011 734.926 219.124 689.366 189.9 648.9C130.104 566.133 84.431 415.006 145.778 313.006C176.249 262.373 230.686 230.26 289.808 229.46C334.739 228.627 377.176 258.432 404.648 258.432C432.119 258.432 483.691 222.599 537.892 227.865C560.576 228.765 624.283 236.629 665.169 293.996C661.866 295.962 589.16 336.504 589.969 420.837Z" fill="black"/>
</svg>
