<?xml version="1.0" encoding="iso-8859-1"?>
<!-- Uploaded to: SVG Repo, www.svgrepo.com, Generator: SVG Repo Mixer Tools -->
<svg height="800px" width="800px" version="1.1" id="Layer_1" xmlns="http://www.w3.org/2000/svg" xmlns:xlink="http://www.w3.org/1999/xlink" 
	 viewBox="0 0 512.002 512.002" xml:space="preserve">
<path style="fill:#57565C;" d="M109.979,169.357v-0.004l0,0c0.008-0.982-0.63-1.962-1.92-2.707c-2.583-1.491-6.837-1.491-9.454,0
	c-1.309,0.746-1.971,1.73-1.98,2.714v55.755c-0.01,0.983,0.63,1.966,1.922,2.712c2.586,1.493,6.84,1.493,9.454,0
	c1.306-0.746,1.967-1.729,1.978-2.712l0,0v-0.001V169.357z"/>
<path style="fill:#3E3D43;" d="M380.235,12.897v-0.004l0,0c0.008-0.982-0.63-1.962-1.92-2.707c-2.583-1.491-6.837-1.491-9.454,0
	c-1.309,0.746-1.971,1.73-1.98,2.714v55.755c-0.01,0.983,0.63,1.966,1.922,2.712c2.586,1.493,6.84,1.493,9.454,0
	c1.306-0.746,1.967-1.729,1.978-2.712l0,0v-0.001C380.235,68.654,380.235,12.897,380.235,12.897z"/>
<g>
	<path style="fill:#77767E;" d="M413.978,420.493c-0.881,0-1.765-0.321-2.46-0.97L303.767,318.903l-44.999,99.14
		c-0.823,1.814-2.963,2.617-4.774,1.794c-1.814-0.824-2.617-2.961-1.794-4.774l47.073-103.712c0.48-1.057,1.439-1.819,2.578-2.046
		c1.139-0.227,2.317,0.108,3.166,0.901l111.419,104.045c1.456,1.358,1.533,3.64,0.174,5.095
		C415.906,420.109,414.943,420.493,413.978,420.493z"/>
	<path style="fill:#77767E;" d="M379.903,12.082c0.02-0.083,0.032-0.166,0.045-0.249c0.016-0.105,0.032-0.209,0.039-0.314
		c0.006-0.088,0.007-0.175,0.007-0.263c0-0.103-0.003-0.205-0.012-0.308c-0.007-0.088-0.02-0.173-0.033-0.26
		c-0.016-0.102-0.037-0.202-0.062-0.302c-0.022-0.086-0.045-0.17-0.074-0.254c-0.032-0.096-0.068-0.191-0.108-0.284
		c-0.036-0.086-0.075-0.169-0.117-0.25c-0.021-0.04-0.034-0.082-0.057-0.122c-0.028-0.048-0.064-0.091-0.094-0.138
		c-0.049-0.078-0.101-0.156-0.157-0.231c-0.063-0.083-0.129-0.162-0.198-0.239c-0.059-0.066-0.117-0.131-0.181-0.193
		c-0.079-0.077-0.164-0.147-0.25-0.216c-0.045-0.037-0.084-0.079-0.133-0.114c-0.022-0.015-0.045-0.026-0.067-0.04
		c-0.094-0.065-0.193-0.121-0.292-0.176c-0.07-0.039-0.138-0.082-0.21-0.117c-0.108-0.052-0.221-0.092-0.335-0.133
		c-0.066-0.024-0.13-0.054-0.197-0.073c-0.156-0.046-0.315-0.077-0.476-0.103c-0.026-0.004-0.05-0.012-0.076-0.015
		c-0.375-0.049-0.761-0.041-1.146,0.033L256.28,30.599c-1.955,0.374-3.238,2.263-2.863,4.22c0.375,1.956,2.272,3.239,4.22,2.863
		l105.604-20.23l-109.6,90.521c-1.535,1.267-1.752,3.541-0.484,5.076c1.266,1.535,3.541,1.751,5.076,0.484l84.898-70.12
		l-23.613,26.685c-1.32,1.491-1.181,3.769,0.311,5.089c0.686,0.607,1.538,0.906,2.388,0.906c0.996,0,1.989-0.411,2.701-1.217
		l40.596-45.874l-46.649,118.081c-0.732,1.852,0.176,3.947,2.028,4.678c0.435,0.172,0.883,0.253,1.324,0.253
		c1.437,0,2.795-0.864,3.354-2.282l54.182-137.149c0.022-0.055,0.031-0.11,0.049-0.166C379.84,12.307,379.877,12.196,379.903,12.082
		z"/>
</g>
<g>
	<path style="fill:#898890;" d="M322.213,76.093c-0.615,0-1.236-0.157-1.806-0.487l-66.143-38.347
		c-1.722-0.999-2.309-3.205-1.31-4.928c1-1.722,3.208-2.308,4.928-1.31l66.143,38.347c1.722,0.999,2.309,3.205,1.31,4.928
		C324.667,75.448,323.457,76.093,322.213,76.093z"/>
	<path style="fill:#898890;" d="M418.253,415.313l-34.624-71.392c-0.065-0.182-0.146-0.357-0.239-0.527
		c-0.013-0.024-0.02-0.049-0.033-0.073c-0.018-0.03-0.041-0.053-0.059-0.081l-28.633-59.042c-0.012-0.038-0.035-0.074-0.049-0.112
		c-0.037-0.101-0.086-0.196-0.132-0.294c-0.042-0.089-0.07-0.18-0.121-0.267c-0.022-0.038-0.053-0.068-0.075-0.105l-28.466-58.696
		V72.486c0-0.052-0.012-0.101-0.014-0.151c-0.006-0.148-0.019-0.295-0.042-0.44c-0.013-0.079-0.032-0.157-0.049-0.234
		c-0.031-0.132-0.069-0.262-0.115-0.39c-0.028-0.076-0.056-0.151-0.088-0.227c-0.056-0.126-0.121-0.247-0.191-0.368
		c-0.039-0.068-0.075-0.137-0.119-0.202c-0.082-0.123-0.179-0.237-0.278-0.351c-0.038-0.044-0.068-0.095-0.108-0.137L258.536,1.105
		c-1.381-1.434-3.664-1.477-5.098-0.099c-1.435,1.381-1.479,3.664-0.099,5.098l63.086,65.562l-62.29,35.963
		c-1.12,0.647-1.807,1.843-1.803,3.135c0.004,1.293,0.701,2.485,1.824,3.122l60.853,34.573l-60.321,35.44
		c-1.101,0.648-1.779,1.831-1.779,3.11s0.678,2.462,1.781,3.109l60.365,35.414l-60.789,35.2c-0.999,0.579-1.66,1.6-1.78,2.747
		c-0.118,1.148,0.318,2.284,1.176,3.055l21.959,19.736l-22.989,52.639c-0.05,0.115-0.082,0.234-0.119,0.351
		c-0.021,0.064-0.047,0.124-0.064,0.188c-0.055,0.209-0.09,0.419-0.106,0.632c-0.004,0.053,0.002,0.105,0,0.159
		c-0.005,0.162-0.004,0.322,0.012,0.482c0.008,0.081,0.025,0.161,0.039,0.242c0.024,0.136,0.053,0.269,0.091,0.402
		c0.024,0.08,0.049,0.159,0.078,0.238c0.054,0.144,0.117,0.283,0.19,0.42c0.023,0.044,0.035,0.091,0.06,0.134
		c0.013,0.023,0.029,0.041,0.042,0.064c0.033,0.055,0.071,0.106,0.107,0.159c0.069,0.102,0.142,0.201,0.22,0.294
		c0.039,0.046,0.079,0.091,0.121,0.136c0.095,0.102,0.194,0.196,0.298,0.284c0.025,0.022,0.044,0.046,0.07,0.067l26.124,21.078
		l-26.475,50.646c-0.007,0.013-0.01,0.029-0.018,0.042c-0.057,0.112-0.096,0.23-0.14,0.346c-0.039,0.103-0.085,0.203-0.114,0.307
		c-0.029,0.101-0.04,0.205-0.06,0.308c-0.023,0.122-0.052,0.243-0.062,0.366c-0.009,0.104-0.001,0.209-0.001,0.313
		c0,0.122-0.003,0.243,0.009,0.364c0.011,0.107,0.037,0.211,0.058,0.317c0.024,0.12,0.045,0.239,0.08,0.355
		c0.03,0.097,0.071,0.191,0.109,0.285c0.05,0.126,0.102,0.248,0.166,0.368c0.018,0.033,0.026,0.067,0.044,0.1
		c0.058,0.1,0.125,0.192,0.191,0.284c0.023,0.032,0.042,0.067,0.066,0.099c0.124,0.163,0.262,0.31,0.408,0.447
		c0.033,0.031,0.068,0.059,0.102,0.088c0.138,0.12,0.284,0.229,0.437,0.325c0.021,0.012,0.036,0.03,0.057,0.042l36.167,21.808
		l-37.431,65.15c-0.992,1.727-0.397,3.93,1.331,4.922c0.566,0.325,1.183,0.48,1.792,0.48c1.249,0,2.463-0.65,3.13-1.811
		l77.156-134.292l76.407,44.113c1.373,0.792,3.1,0.596,4.259-0.483C418.624,418.448,418.945,416.739,418.253,415.313z
		 M342.684,370.967l33.119-19.121l-4.262,35.782L342.684,370.967z M287.561,364.949c0.003-0.006,0.006-0.011,0.009-0.018l27.706-53
		l57.736,33.198l-107.552,62.095L287.561,364.949z M301.874,244.177l43.346,40.464l-81.591,47.107L301.874,244.177z
		 M318.611,249.937l-11.986-11.189l11.986-6.94V249.937z M347.239,291.803l-1.76,29.177l-24.439-14.052L347.239,291.803z
		 M354.008,299.368l17.832,36.769l-19.376-11.141L354.008,299.368z M339.484,269.421l-13.662-12.752v-15.416L339.484,269.421z
		 M318.611,219.258l-24.563-14.411l24.563-42.89V219.258z M263.191,110.727l49.121-28.358l-24.56,42.312L263.191,110.727z
		 M294.022,128.243l24.589-42.362v56.332L294.022,128.243z M312.345,158.39l-24.518,42.808l-24.19-14.192L312.345,158.39z
		 M262.173,264.488l30.735-17.797l-14.245,32.617L262.173,264.488z M262.292,340.848l42.584-24.586l-21.673,41.458L262.292,340.848z
		 M263.61,416.62l62.061-35.831l-31.258,54.405L263.61,416.62z M378.337,391.55l4.018-33.734l24.284,50.074L378.337,391.55z"/>
	<path style="fill:#898890;" d="M189.788,76.093c-1.243,0-2.454-0.645-3.122-1.798c-0.998-1.723-0.411-3.929,1.31-4.928
		l66.143-38.347c1.724-0.997,3.929-0.41,4.928,1.31c0.998,1.723,0.411,3.929-1.31,4.928l-66.143,38.347
		C191.025,75.936,190.402,76.093,189.788,76.093z"/>
	<path style="fill:#898890;" d="M96.994,420.493c-0.965,0-1.926-0.384-2.636-1.145c-1.359-1.456-1.282-3.737,0.174-5.095
		l111.419-104.045c0.849-0.794,2.027-1.128,3.166-0.901c1.138,0.228,2.098,0.989,2.579,2.046l47.073,103.712
		c0.823,1.813,0.021,3.95-1.793,4.774c-1.814,0.822-3.952,0.02-4.774-1.794l-44.999-99.14L99.454,419.521
		C98.759,420.171,97.876,420.493,96.994,420.493z"/>
</g>
<path style="fill:#ACABB1;" d="M259.659,340.08c-0.016-0.211-0.052-0.422-0.106-0.632c-0.016-0.064-0.044-0.125-0.064-0.188
	c-0.037-0.117-0.07-0.236-0.12-0.351l-0.125-0.286l0.066-73.539c0.184-0.507,0.263-1.053,0.205-1.605
	c-0.031-0.299-0.102-0.587-0.203-0.862l0.134-150.632c0.141-0.386,0.224-0.796,0.225-1.221c0.001-0.43-0.08-0.847-0.223-1.238
	l0.094-105.027c0.311-1.217-0.007-2.559-0.977-3.492c-0.723-0.695-1.661-1.027-2.591-1.003c-0.011,0-0.022-0.003-0.033-0.003
	c-0.001,0-0.002,0-0.003,0c-1.296,0-2.422,0.689-3.058,1.716l-65.692,68.271c-0.041,0.042-0.07,0.093-0.108,0.137
	c-0.099,0.113-0.195,0.228-0.278,0.351c-0.044,0.065-0.08,0.134-0.119,0.202c-0.07,0.119-0.135,0.241-0.19,0.367
	c-0.033,0.075-0.061,0.15-0.089,0.227c-0.046,0.129-0.084,0.258-0.115,0.39c-0.019,0.077-0.036,0.155-0.049,0.234
	c-0.025,0.146-0.036,0.293-0.042,0.44c-0.002,0.052-0.014,0.101-0.014,0.151v152.238l-28.466,58.696
	c-0.024,0.037-0.054,0.067-0.075,0.105c-0.049,0.087-0.078,0.178-0.121,0.267c-0.046,0.098-0.095,0.193-0.132,0.294
	c-0.014,0.038-0.036,0.074-0.049,0.112l-28.633,59.042c-0.018,0.029-0.041,0.052-0.059,0.081c-0.013,0.024-0.02,0.049-0.033,0.073
	c-0.093,0.17-0.174,0.345-0.239,0.527l-34.624,71.392c-0.691,1.426-0.371,3.135,0.789,4.213c1.158,1.08,2.885,1.274,4.259,0.483
	l76.407-44.113l77.156,134.292c0.028,0.047,0.062,0.09,0.091,0.136c0.032,0.05,0.065,0.1,0.099,0.148
	c0.113,0.16,0.234,0.31,0.368,0.446c0.008,0.008,0.014,0.018,0.023,0.026c0.149,0.149,0.311,0.279,0.481,0.398
	c0.039,0.028,0.079,0.053,0.12,0.078c0.153,0.099,0.313,0.186,0.479,0.261c0.028,0.012,0.054,0.028,0.082,0.04
	c0.191,0.079,0.388,0.138,0.589,0.183c0.048,0.011,0.097,0.02,0.146,0.029c0.215,0.04,0.433,0.067,0.652,0.067
	c0.216,0,0.434-0.027,0.65-0.067c0.044-0.008,0.089-0.016,0.132-0.026c0.203-0.045,0.403-0.104,0.6-0.186
	c0.027-0.011,0.052-0.027,0.078-0.038c0.112-0.05,0.225-0.101,0.333-0.163c0.037-0.022,0.065-0.05,0.101-0.072
	c0.108-0.068,0.209-0.143,0.309-0.221c0.091-0.07,0.18-0.139,0.263-0.216c0.082-0.077,0.156-0.163,0.23-0.247
	c0.08-0.091,0.161-0.18,0.23-0.278c0.065-0.091,0.118-0.188,0.175-0.283c0.06-0.103,0.121-0.204,0.17-0.312
	c0.047-0.103,0.082-0.21,0.12-0.318c0.039-0.113,0.078-0.226,0.106-0.342c0.025-0.105,0.039-0.212,0.055-0.32
	c0.019-0.131,0.035-0.261,0.04-0.394c0.001-0.04,0.012-0.077,0.012-0.117l0.148-166.358c0.003-0.005,0.004-0.01,0.007-0.016
	c0.072-0.137,0.136-0.276,0.19-0.42c0.029-0.079,0.056-0.158,0.078-0.238c0.039-0.132,0.068-0.266,0.091-0.402
	c0.013-0.081,0.031-0.161,0.039-0.242c0.017-0.16,0.018-0.32,0.012-0.482C259.657,340.185,259.663,340.133,259.659,340.08z
	 M186.331,380.789l62.061,35.831l-30.803,18.574L186.331,380.789z M140.461,387.628l-4.262-35.782l33.119,19.121L140.461,387.628z
	 M138.99,345.13l57.736-33.198l27.71,53.007c0,0,0,0.001,0.001,0.001l22.105,42.285L138.99,345.13z M207.127,316.262l42.584,24.586
	l-20.911,16.873L207.127,316.262z M166.522,320.981l-1.758-29.177l26.198,15.126L166.522,320.981z M232.206,364.238l19.817-15.99
	l-0.048,53.808L232.206,364.238z M166.781,284.641l43.346-40.464l38.245,87.571L166.781,284.641z M224.669,132.737
	c0.022-0.012,0.044-0.025,0.066-0.037c0.003-0.002,0.005-0.003,0.007-0.004l27.488-15.617l-0.057,63.802l-55.181-32.42
	L224.669,132.737z M224.251,124.681l-24.56-42.312l49.12,28.358L224.251,124.681z M248.365,187.007l-24.19,14.192l-24.517-42.808
	L248.365,187.007z M217.955,204.848l-24.563,14.411v-57.3L217.955,204.848z M193.392,249.937v-18.129l11.986,6.94L193.392,249.937z
	 M219.094,246.691l30.735,17.797l-16.49,14.82L219.094,246.691z M196.946,225.533l55.217-32.393l-0.058,64.334L196.946,225.533z
	 M252.242,104.381l-56.664-32.714l56.746-58.973L252.242,104.381z M217.98,128.242l-24.589,13.971V85.881L217.98,128.242z
	 M186.18,256.668l-13.662,12.752l13.662-28.17V256.668z M159.539,324.996l-19.376,11.141l17.832-36.769L159.539,324.996z
	 M251.957,422.891l-0.064,72.009l-30.711-53.453L251.957,422.891z M236.38,286.272l15.712-14.121l-0.044,49.996L236.38,286.272z
	 M129.648,357.818l4.018,33.734l-28.303,16.34L129.648,357.818z"/>
<path style="fill:#C6C5CB;" d="M256.41,183.697l-138.454-13.322l72.717-18.473c1.931-0.491,3.098-2.453,2.607-4.382
	c-0.49-1.931-2.45-3.097-4.382-2.607l-33.957,8.627l102.419-39.421c1.859-0.715,2.786-2.802,2.071-4.659s-2.804-2.787-4.659-2.071
	l-144.465,55.605l82.116-88.047c1.358-1.456,1.278-3.737-0.178-5.095c-1.455-1.358-3.737-1.277-5.095,0.178l-92.792,99.493
	c-0.05,0.055-0.089,0.115-0.135,0.172c-0.068,0.083-0.138,0.164-0.199,0.252c-0.06,0.088-0.11,0.179-0.162,0.271
	c-0.048,0.085-0.099,0.169-0.14,0.259c-0.045,0.099-0.08,0.202-0.116,0.304c-0.032,0.091-0.067,0.178-0.092,0.271
	c-0.029,0.11-0.045,0.223-0.065,0.334c-0.015,0.09-0.035,0.177-0.043,0.269c-0.012,0.139-0.009,0.279-0.005,0.419
	c0.002,0.061-0.007,0.12-0.002,0.181c0,0,0.003,0.012,0.003,0.019c0.016,0.205,0.049,0.41,0.102,0.611
	c0.021,0.081,0.056,0.156,0.082,0.235c0.039,0.116,0.073,0.234,0.124,0.346c0.059,0.131,0.134,0.251,0.208,0.373
	c0.032,0.053,0.054,0.107,0.089,0.159c0.001,0.002,0.004,0.004,0.005,0.006c0.151,0.224,0.333,0.422,0.53,0.606
	c0.049,0.046,0.101,0.089,0.153,0.132c0.166,0.139,0.344,0.262,0.534,0.369c0.044,0.025,0.086,0.055,0.13,0.077
	c0.231,0.117,0.474,0.21,0.73,0.277c0.054,0.014,0.109,0.02,0.164,0.031c0.131,0.028,0.261,0.061,0.397,0.074l159.072,15.306
	c0.116,0.011,0.234,0.016,0.349,0.016c1.836,0,3.406-1.395,3.585-3.26C259.844,185.65,258.393,183.888,256.41,183.697z"/>
</svg>