<?xml version="1.0" encoding="iso-8859-1"?>
<!-- Uploaded to: SVG Repo, www.svgrepo.com, Generator: SVG Repo Mixer Tools -->
<svg height="800px" width="800px" version="1.1" id="Layer_1" xmlns="http://www.w3.org/2000/svg" xmlns:xlink="http://www.w3.org/1999/xlink" 
	 viewBox="0 0 512 512" xml:space="preserve">
<path style="fill:#88CC2A;" d="M77.087,332.643c-6.24-2.582-10.305-8.669-10.305-15.425v-50.087H50.087
	C22.468,267.132,0,244.664,0,217.045V50.088C0,22.469,22.468,0.001,50.087,0.001h233.739c27.619,0,50.087,22.468,50.087,50.087
	v166.957c0,27.619-22.468,50.087-50.087,50.087H157.174l-61.891,61.891C90.444,333.862,83.221,335.193,77.087,332.643z"/>
<path style="fill:#7FB335;" d="M166.957,267.132h116.87c27.619,0,50.087-22.468,50.087-50.087V50.088
	c0-27.619-22.468-50.087-50.087-50.087h-116.87V267.132z"/>
<circle style="fill:#665247;" cx="233.739" cy="133.565" r="16.696"/>
<circle style="fill:#736056;" cx="166.957" cy="133.565" r="16.696"/>
<path style="fill:#665247;" d="M183.652,133.567c0-9.22-7.475-16.696-16.696-16.696v33.391
	C176.177,150.262,183.652,142.787,183.652,133.567z"/>
<circle style="fill:#736056;" cx="100.174" cy="133.565" r="16.696"/>
<path style="fill:#FFE14D;" d="M461.913,178.088H228.174c-27.603,0-50.087,22.483-50.087,50.087v166.957
	c0,27.603,22.483,50.087,50.087,50.087h126.664l61.884,61.885c4.665,4.664,11.562,6.23,18.144,3.673
	c6.232-2.672,10.35-8.682,10.35-15.471v-50.087h16.696c27.603,0,50.087-22.483,50.087-50.087V228.175
	C512,200.572,489.516,178.088,461.913,178.088z"/>
<path style="fill:#FFCC33;" d="M512,228.175v166.957c0,27.603-22.483,50.087-50.087,50.087h-16.696v50.087
	c0,6.79-4.118,12.8-10.35,15.471c-6.583,2.557-13.479,0.991-18.144-3.673l-61.884-61.885h-9.796v-267.13h116.87
	C489.516,178.088,512,200.572,512,228.175z"/>
<circle style="fill:#665247;" cx="411.826" cy="311.652" r="16.696"/>
<g>
	<circle style="fill:#736056;" cx="278.261" cy="311.652" r="16.696"/>
	<circle style="fill:#736056;" cx="345.043" cy="311.652" r="16.696"/>
</g>
<path style="fill:#665247;" d="M361.739,311.654c0-9.22-7.475-16.696-16.696-16.696v33.391
	C354.264,328.349,361.739,320.874,361.739,311.654z"/>
</svg>