<?xml version="1.0" encoding="iso-8859-1"?>
<!-- Uploaded to: SVG Repo, www.svgrepo.com, Generator: SVG Repo Mixer Tools -->
<svg version="1.1" id="Layer_1" xmlns="http://www.w3.org/2000/svg" xmlns:xlink="http://www.w3.org/1999/xlink" 
	 viewBox="0 0 218.185 218.185" xml:space="preserve">
<rect x="66.64" style="fill:#C56E46;" width="84.905" height="19.559"/>
<rect x="66.64" style="fill:#9B5836;" width="42.452" height="19.559"/>
<path style="fill:#B5C0E3;" d="M167.116,218.185H51.069c-23.335,0-42.253-18.917-42.253-42.253V59.885
	c0-23.335,18.917-42.253,42.253-42.253h116.047c23.335,0,42.253,18.917,42.253,42.253v116.047
	C209.369,199.268,190.452,218.185,167.116,218.185z"/>
<path style="opacity:0.2;fill:#667F9C;enable-background:new    ;" d="M167.116,218.185H51.069
	c-23.335,0-42.253-18.917-42.253-42.253V59.885l200.552,116.047C209.369,199.268,190.452,218.185,167.116,218.185z"/>
<circle style="fill:#667F9C;" cx="109.093" cy="83.881" r="7.916"/>
<circle style="fill:#667F9C;" cx="109.093" cy="128.634" r="7.916"/>
<circle style="fill:#667F9C;" cx="109.093" cy="173.388" r="7.916"/>
<g>
	<path style="fill:#F9C890;" d="M167.116,218.185H51.069c-23.335,0-42.253-18.917-42.253-42.253V59.885
		c0-23.335,18.917-42.253,42.253-42.253h116.047c23.335,0,42.253,18.917,42.253,42.253v116.047
		C209.369,199.268,190.452,218.185,167.116,218.185z"/>
	<path style="fill:#F3A069;" d="M109.093,218.185H51.069c-23.335,0-42.253-18.917-42.253-42.253V59.885
		c0-23.335,18.917-42.253,42.253-42.253h58.024V218.185z"/>
	<circle style="fill:#956958;" cx="109.093" cy="83.881" r="7.916"/>
	<circle style="fill:#956958;" cx="109.093" cy="128.634" r="7.916"/>
	<circle style="fill:#956958;" cx="109.093" cy="173.388" r="7.916"/>
</g>
<polygon style="fill:#C06B44;" points="86.638,59.959 58.768,19.507 66.719,0 105.504,42.905 "/>
<polygon style="fill:#F3A069;" points="131.547,59.959 159.417,19.507 151.467,0 112.682,42.905 "/>
</svg>